<?xml version="1.0" encoding="UTF-8" standalone="no"?>
<svg
   xmlns:dc="http://purl.org/dc/elements/1.1/"
   xmlns:cc="http://creativecommons.org/ns#"
   xmlns:rdf="http://www.w3.org/1999/02/22-rdf-syntax-ns#"
   xmlns:svg="http://www.w3.org/2000/svg"
   xmlns="http://www.w3.org/2000/svg"
   xmlns:sodipodi="http://sodipodi.sourceforge.net/DTD/sodipodi-0.dtd"
   xmlns:inkscape="http://www.inkscape.org/namespaces/inkscape"
   viewBox="0 0 500 500"
   version="1.1"
   id="svg57"
   sodipodi:docname="wi_cloudy.svg"
   inkscape:version="0.92.4 5da689c313, 2019-01-14">
  <metadata
     id="metadata61">
    <rdf:RDF>
      <cc:Work
         rdf:about="">
        <dc:format>image/svg+xml</dc:format>
        <dc:type
           rdf:resource="http://purl.org/dc/dcmitype/StillImage" />
      </cc:Work>
    </rdf:RDF>
  </metadata>
  <sodipodi:namedview
     pagecolor="#ffffff"
     bordercolor="#666666"
     borderopacity="1"
     objecttolerance="10"
     gridtolerance="10"
     guidetolerance="10"
     inkscape:pageopacity="0"
     inkscape:pageshadow="2"
     inkscape:window-width="1366"
     inkscape:window-height="728"
     id="namedview59"
     showgrid="false"
     inkscape:zoom="4.6875"
     inkscape:cx="225.47327"
     inkscape:cy="178.94779"
     inkscape:window-x="0"
     inkscape:window-y="20"
     inkscape:window-maximized="0"
     inkscape:current-layer="svg57" />
  <defs
     id="defs4">
    <style
       id="style2">.cls-1{fill:#fff;}.cls-2{fill:#231815;}.cls-3{fill:none;stroke:#231815;stroke-miterlimit:10;}</style>
  </defs>
  <title
     id="title6" />
  <path
     style="fill:#ffffff;fill-opacity:1"
     inkscape:connector-curvature="0"
     id="path8"
     d="m 394.67,337.33 c 0.49,14.52 -8.42,28.24 -22.28,33.07 -6.06,2.11 -12.13,1.91 -18.41,1.91 H 263.5 c -4.59,0 -9.19,0.05 -13.79,0 a 41.85,41.85 0 0 1 -34.3,-65.91 c 10.53,-15.33 30,-21 47.46,-15.64 3.35,1 6.62,-0.74 8.47,-3.45 11.27,-16.48 31.82,-25.42 51.57,-21.55 a 51.65,51.65 0 0 1 39.17,34.63 6.36,6.36 0 0 0 5.29,5.41 c 15.01,3.32 26.77,15.79 27.3,31.53 z"
     class="cls-1" />
  <path
     sodipodi:nodetypes="ccccccccccssccccccccsccccccssccccs"
     inkscape:connector-curvature="0"
     id="path10"
     d="m 314.48242,250.02539 c -20.41522,-0.12828 -39.77167,9.07236 -52.5625,24.98438 -3.76086,-0.80109 -7.59245,-1.23354 -11.4375,-1.27149 -0.79762,-0.008 -1.59531,3.4e-4 -2.39258,0.0254 -13.57903,0.42878 -26.57001,5.64108 -36.67968,14.7168 -12.23149,11.21951 -18.90661,27.23148 -18.36133,43.82031 h -0.0996 c 0.0625,2.37048 0.26992,4.73492 0.62109,7.08008 0.40131,2.68302 1.0099,5.33092 1.82031,7.91992 4.53258,14.57203 14.71916,26.71797 28.2793,33.71875 9.78,4.93 20.0293,6.29102 30.7793,6.29102 h 98.43164 c 8.39,0 16.69922,0.10937 24.69922,-2.89063 19.42,-7.22 32.75059,-26.20984 32.06054,-47.08984 -0.37592,-10.49591 -4.13752,-20.58839 -10.72265,-28.76953 l 0.0117,-0.0215 c -3.32306,-4.13756 -7.29047,-7.71325 -11.75,-10.58984 -3.75542,-2.42964 -7.83107,-4.35541 -12.10938,-5.66016 -8.35,-21 -26.91054,-37.40929 -49.56054,-41.27929 -3.64227,-0.63224 -7.33068,-0.96149 -11.02735,-0.98438 z m -0.79883,14.83789 c 3.08656,-7.3e-4 6.19141,0.2918 9.27735,0.89649 18.29743,3.58113 33.23655,16.74504 39.10156,34.43164 l 0.0781,0.3789 c 0.45007,2.68328 2.55012,4.79651 5.25,5.23047 15.01002,3.32 26.76883,15.7893 27.29883,31.5293 0.49,14.52 -8.41929,28.24031 -22.27929,33.07031 -6.06,2.11 -12.13016,1.91016 -18.41016,1.91016 h -90.44922 c -4.59,0 -9.19101,0.05 -13.79101,0 -33.9173,0.0459 -53.79841,-38.15856 -34.29883,-65.91016 10.53,-15.33 30.02898,-20.96062 47.45898,-15.64062 3.35,1.02 6.62074,-0.73922 8.4707,-3.44922 9.50908,-13.905 25.62554,-22.44333 42.29297,-22.44727 z"
     style="fill:#231815;fill-opacity:1" />
  <path
     style="fill:#ffffff;fill-opacity:1;stroke:#f2f2f2"
     inkscape:connector-curvature="0"
     id="path12"
     d="m 348,227.82 c 22.46,4.83 40.56,23.46 42.46,46.81 0.64836,7.91702 -0.49793,15.87959 -3.28,23.32 -3.75555,-2.43007 -7.79141,-4.32496 -12.07,-5.63 -8.35,-21 -26.91,-37.41 -49.56,-41.28 -23.9845,-4.16537 -48.3386,5.0263 -63.59,24 -18.03784,-3.86042 -36.83367,1.14709 -50.56,13.47 -12.22272,11.21709 -18.94239,27.20918 -18.4,43.79 -6.23,0 -12.45,0.06 -18.67,0 -35.49963,-0.1039 -64.33056,-28.70699 -64.71617,-64.20466 -0.38561,-35.49766 27.81718,-64.7203 63.30617,-65.59534 7.37082,-0.10129 14.70933,0.9929 21.73,3.24 3.33,1 6.63,-0.74 8.47,-3.45 17.29,-25.5 48.92,-39.18 79.35,-33.28 28.29087,5.50125 51.35922,25.93836 60.23,53.36 0.35446,2.79491 2.51607,5.0177 5.3,5.45 z"
     class="cls-1"
     sodipodi:nodetypes="cccccccccscccccc" />
  <path
     style="fill:#231815"
     inkscape:connector-curvature="0"
     id="path22"
     d="m 357.18,218.6 c 2.94,9.23 -11.54,13.15 -14.46,4 0,-0.07 -0.05,-0.14 -0.07,-0.21 -0.66,-4.68 3.17,-10.33 9.3,-9 1.25,0.27 2.5,0.58 3.74,0.92 0.53,1.4 1.03,2.83 1.49,4.29 z"
     class="cls-2" />
  <path
     style="fill:#231815"
     inkscape:connector-curvature="0"
     id="path24"
     d="m 348,227.82 c -2.78783,-0.42825 -4.95443,-2.65197 -5.31,-5.45 0,0.07 0.05,0.14 0.07,0.21 2.92,9.17 17.4,5.25 14.46,-4 -0.46,-1.46 -1,-2.89 -1.49,-4.32 5.05727,1.3803 9.94179,3.32941 14.56,5.81 23.64,12.76 38,39.69 35,66.43 -0.84905,7.63642 -3.04443,15.13503 -6.37202,22.06056 -3.32305,-4.13762 -7.84716,-7.55295 -12.3067,-10.42959 2.78207,-7.44041 4.50708,-15.62395 3.85872,-23.54097 -1.95,-23.31 -20.05,-41.94 -42.47,-46.77 z"
     class="cls-2"
     sodipodi:nodetypes="ccccccccccc" />
  <path
     style="fill:#231815"
     inkscape:connector-curvature="0"
     id="path32"
     d="m 198.59,191.28 -8.47,3.44 q 1.67,-2.46 3.47,-4.82 c 1.68,0.4 3.34,0.86 5,1.38 z"
     class="cls-2" />
  <path
     style="fill:#231815"
     inkscape:connector-curvature="0"
     id="path34"
     d="M 342.65,222.37 A 79.19,79.19 0 0 0 282.42,169 c -30.43,-5.9 -62.06,7.78 -79.35,33.28 -1.84,2.71 -5.14,4.49 -8.47,3.45 a 68.21,68.21 0 0 0 -21.73,-3.24 64.91,64.91 0 0 0 1.41,129.8 c 6.22,0.06 12.44,0 18.67,0 a 58.16,58.16 0 0 0 0.62,7.08 52.52,52.52 0 0 0 1.82,7.92 h -13.3 c -14.32,0 -28,-1.36 -41.3,-7.38 -23.68,-10.72 -41.31,-33.75 -45.31,-59.46 -4.11,-26.39 4.81,-53.69 24.66,-71.83 a 80.83,80.83 0 0 1 73.45,-18.73 q -1.8,2.36 -3.47,4.82 l 8.47,-3.44 c -1.66,-0.52 -3.32,-1 -5,-1.38 a 93,93 0 0 1 113.13,-28.76 c 22.84,10.2 40.34,29.88 49,53.14 -1.24,-0.34 -2.49,-0.65 -3.74,-0.92 -6.16,-1.35 -9.98,4.34 -9.33,9.02 z"
     class="cls-2" />
  <path
     style="fill:none;stroke:#231815;stroke-miterlimit:10"
     inkscape:connector-curvature="0"
     id="path38"
     d="m 193.59,189.9 a 80.83,80.83 0 0 0 -73.45,18.73 c -19.85,18.14 -28.77,45.44 -24.66,71.83 4,25.71 21.63,48.74 45.31,59.46 13.28,6 27,7.38 41.3,7.38 h 13.3"
     class="cls-3" />
  <path
     style="fill:none;stroke:#231815;stroke-miterlimit:10"
     inkscape:connector-curvature="0"
     id="path40"
     d="m 193.59,189.9 c 1.68,0.4 3.34,0.86 5,1.38 l -8.47,3.44 q 1.67,-2.46 3.47,-4.82 z"
     class="cls-3" />
  <path
     style="fill:none;stroke:#231815;stroke-miterlimit:10"
     inkscape:connector-curvature="0"
     id="path42"
     d="m 355.69,214.28 c -8.63,-23.26 -26.13,-42.94 -49,-53.14 a 93,93 0 0 0 -113.1,28.76"
     class="cls-3" />
  <path
     style="fill:none;stroke:#231815;stroke-miterlimit:10"
     inkscape:connector-curvature="0"
     id="path44"
     d="m 193,332.3 c -6.23,0 -12.45,0.06 -18.67,0 a 64.91,64.91 0 0 1 -1.41,-129.8 68.21,68.21 0 0 1 21.73,3.24 c 3.33,1 6.63,-0.74 8.47,-3.45 17.29,-25.5 48.92,-39.18 79.35,-33.28 a 79.19,79.19 0 0 1 60.23,53.36"
     class="cls-3" />
  <path
     style="fill:none;stroke:#231815;stroke-miterlimit:10"
     inkscape:connector-curvature="0"
     id="path46"
     d="m 342.65,222.37 a 6.32,6.32 0 0 0 5.31,5.45 c 22.46,4.83 40.56,23.46 42.46,46.81 a 54,54 0 0 1 -3.24,23.32"
     class="cls-3" />
  <path
     style="fill:none;stroke:#231815;stroke-miterlimit:10"
     inkscape:connector-curvature="0"
     id="path48"
     d="m 398.93,308.54 a 68.2,68.2 0 0 0 6.31,-22 c 3,-26.74 -11.35,-53.67 -35,-66.43 a 69.37,69.37 0 0 0 -14.56,-5.81"
     class="cls-3" />
  <path
     style="fill:none;stroke:#231815;stroke-miterlimit:10"
     inkscape:connector-curvature="0"
     id="path50"
     d="m 342.65,222.37 c 0,0.07 0.05,0.14 0.07,0.21 2.92,9.17 17.4,5.25 14.46,-4 -0.46,-1.46 -1,-2.89 -1.49,-4.32 -1.24,-0.34 -2.49,-0.65 -3.74,-0.92 -6.13,-1.34 -9.95,4.35 -9.3,9.03 z"
     class="cls-3" />
  <path
     sodipodi:nodetypes="cccccccssccccccccc"
     inkscape:connector-curvature="0"
     id="path52"
     d="m 313.99615,250.27403 c -20.05845,-0.0662 -39.19663,9.20547 -52.01337,25.18871 -17.96547,-3.85419 -36.77447,0.96946 -50.44572,13.2725 -12.15899,11.20628 -18.83148,27.10641 -18.28111,43.65422 0.0618,2.36661 0.21863,4.72728 0.56803,7.06865 0.3996,2.67872 1.00594,5.3223 1.81301,7.90715 4.50713,14.5327 14.63391,26.64949 28.11721,33.64488 9.7308,4.92205 19.91906,6.27892 30.6558,6.27892 h 98.06592 c 8.35633,0 16.60233,0.10117 24.60012,-2.88401 19.34209,-7.20836 32.61914,-26.16758 31.93191,-47.01391 -0.37491,-10.48785 -4.12796,-20.57305 -10.69714,-28.74459 -3.30971,-4.13095 -7.2609,-7.68049 -11.70255,-10.55249 -3.74048,-2.42615 -7.94169,-4.11856 -12.20311,-5.42149 -0.003,-9.8e-4 0.003,10e-4 0,0 -8.32068,-20.95565 -26.66866,-37.55143 -49.21994,-41.41385 -3.73254,-0.64979 -7.47454,-0.97243 -11.18906,-0.98469 z"
     style="fill:none;stroke:#231815;stroke-width:0.99718696;stroke-miterlimit:10" />
  <path
     style="fill:none;stroke:#231815;stroke-miterlimit:10"
     inkscape:connector-curvature="0"
     id="path54"
     d="m 362.08,300.39 a 6.36,6.36 0 0 0 5.29,5.41 c 15,3.32 26.77,15.79 27.3,31.53 0.49,14.52 -8.42,28.24 -22.28,33.07 -6.06,2.11 -12.13,1.91 -18.41,1.91 H 263.5 c -4.59,0 -9.19,0.05 -13.79,0 a 41.85,41.85 0 0 1 -34.3,-65.91 c 10.53,-15.33 30,-21 47.46,-15.64 3.35,1 6.62,-0.74 8.47,-3.45 11.27,-16.48 31.82,-25.42 51.57,-21.55 a 51.65,51.65 0 0 1 39.17,34.63 z"
     class="cls-3" />
</svg>
