<?xml version="1.0" encoding="UTF-8" standalone="no"?>
<svg
   xmlns:dc="http://purl.org/dc/elements/1.1/"
   xmlns:cc="http://creativecommons.org/ns#"
   xmlns:rdf="http://www.w3.org/1999/02/22-rdf-syntax-ns#"
   xmlns:svg="http://www.w3.org/2000/svg"
   xmlns="http://www.w3.org/2000/svg"
   xmlns:sodipodi="http://sodipodi.sourceforge.net/DTD/sodipodi-0.dtd"
   xmlns:inkscape="http://www.inkscape.org/namespaces/inkscape"
   viewBox="0 0 500 500"
   version="1.1"
   id="svg97"
   sodipodi:docname="if_weather-11_1530383.svg"
   inkscape:version="0.92.4 5da689c313, 2019-01-14">
  <metadata
     id="metadata101">
    <rdf:RDF>
      <cc:Work
         rdf:about="">
        <dc:format>image/svg+xml</dc:format>
        <dc:type
           rdf:resource="http://purl.org/dc/dcmitype/StillImage" />
      </cc:Work>
    </rdf:RDF>
  </metadata>
  <sodipodi:namedview
     pagecolor="#ffffff"
     bordercolor="#666666"
     borderopacity="1"
     objecttolerance="10"
     gridtolerance="10"
     guidetolerance="10"
     inkscape:pageopacity="0"
     inkscape:pageshadow="2"
     inkscape:window-width="1366"
     inkscape:window-height="728"
     id="namedview99"
     showgrid="false"
     inkscape:zoom="4"
     inkscape:cx="327.00661"
     inkscape:cy="338.22045"
     inkscape:window-x="0"
     inkscape:window-y="20"
     inkscape:window-maximized="0"
     inkscape:current-layer="svg97" />
  <defs
     id="defs4">
    <style
       id="style2">.cls-1{fill:#231815;}.cls-2{fill:#fff;}.cls-3{fill:#f4ec90;}</style>
  </defs>
  <title
     id="title6" />
  <path
     style="fill:#231815"
     d="M 240.16602 110.63477 C 239.05064 110.64377 237.96187 110.84539 237 111.25977 C 235.42 111.92643 233.85272 112.59721 232.35938 113.31055 C 183.22314 136.86973 154.04827 188.16582 158.31445 241.9082 C 158.53821 244.72689 158.89108 247.57189 159.30078 250.40039 C 141.47829 250.38059 124.31643 257.14515 111.30078 269.32031 C 94.360803 285.22031 86.810469 308.86969 90.480469 331.67969 C 94.275711 353.99074 108.65842 373.07424 129.06055 382.86914 C 140.75055 388.33914 152.83977 389.73047 165.50977 389.73047 L 288.93945 389.73047 C 298.74945 389.73047 308.45945 390.01016 317.93945 386.91016 C 337.80391 380.31117 352.82407 363.88111 357.61914 343.50586 C 357.62314 343.50386 357.62716 343.502 357.63086 343.5 L 357.63477 343.47656 C 379.12024 330.23894 396.37888 311.14128 407.38086 288.42969 C 408.11419 286.91635 408.8431 285.38341 409.50977 283.83008 C 411.70977 278.74008 407.8607 269.99906 400.9707 272.78906 C 399.34125 273.51882 397.66012 274.16925 395.9707 274.78906 C 374.66776 282.60687 351.57466 284.1756 329.41016 279.31055 C 325.1659 276.82462 320.62743 274.87918 315.90039 273.51953 C 315.89939 273.52253 315.90816 273.52253 315.91016 273.51953 C 305.87016 247.18953 282.74914 226.73906 254.61914 221.78906 C 253.93914 221.66906 253.27914 221.58047 252.61914 221.48047 C 236.70932 191.66667 234.29719 156.47533 245.99023 124.76953 C 246.64023 123.11953 247.3 121.40047 248 119.73047 C 250.33187 114.17297 244.99931 110.59538 240.16602 110.63477 z M 227.68945 133.17969 C 220.26289 162.41106 223.03977 193.24145 235.56055 220.67969 C 211.89254 222.06506 189.99228 233.57394 175.40039 252.25977 L 175.0293 252.18164 C 172.80453 240.3704 172.4532 228.2537 173.96484 216.39453 C 174.62005 211.25428 175.61806 206.14997 176.9707 201.11914 C 184.28709 174.63197 200.68423 151.68096 223.19922 136.13281 C 224.67061 135.11672 226.16662 134.13146 227.68945 133.17969 z M 241.22461 235.38281 C 241.94886 235.39321 242.67376 235.41522 243.40039 235.44922 C 243.40339 235.44937 243.40716 235.44907 243.41016 235.44922 C 246.29439 235.60515 249.16446 235.95951 252 236.50977 C 256.63588 237.41753 261.16225 238.81451 265.50391 240.67578 L 265.55078 240.74023 C 277.82974 246.01418 288.25709 254.8299 295.5 266.06055 C 295.5181 266.07115 295.53649 266.0814 295.55469 266.0918 C 298.65696 270.92395 301.15585 276.25151 302.92383 281.71484 C 303.35403 284.42458 305.46842 286.56439 308.18945 287 C 313.63098 288.18043 318.76993 290.32062 323.46094 293.32031 C 335.46557 300.76244 343.12602 313.55436 344.01953 327.65039 C 344.1387 329.85388 344.09233 332.06321 343.88086 334.25977 C 343.2391 341.11228 341.04709 347.72901 337.4707 353.60938 C 337.4637 353.61237 337.45652 353.61614 337.44922 353.61914 C 332.45897 361.90339 324.85769 368.29481 315.83984 371.78906 C 307.71984 374.89906 299.57914 374.74023 291.11914 374.74023 L 175.66016 374.74023 C 170.20016 374.74023 164.68922 374.79023 159.19922 374.74023 C 138.48788 374.73623 119.55009 363.04986 110.25977 344.53906 C 100.96946 326.02826 102.91586 303.85915 115.28906 287.25 C 126.47906 272.18 144.38085 264.63031 162.38086 265.57031 C 167.13189 265.82403 171.83376 266.66037 176.38086 268.06055 C 177.29706 268.33803 178.26209 268.41595 179.21094 268.28906 C 181.52594 267.91418 183.5743 266.57742 184.84961 264.60938 C 197.58127 245.99669 218.77297 235.06 241.22461 235.38281 z "
     id="path8" />
  <path
     style="fill:#ffffff"
     inkscape:connector-curvature="0"
     id="path10"
     d="m 295.5,266 a 66.74,66.74 0 0 1 7.39,15.58 6.36,6.36 0 0 0 5.3,5.44 46.89,46.89 0 0 1 15.27,6.28 43.64,43.64 0 0 1 20.54,34.35 44.11,44.11 0 0 1 -0.14,6.61 45.38,45.38 0 0 1 -6.43,19.39 43.63,43.63 0 0 1 -21.61,18.17 c -8.12,3.11 -16.26,2.95 -24.72,2.95 H 175.66 c -5.49,0 -11,0.05 -16.46,0 a 54.77,54.77 0 0 1 -43.91,-87.49 c 11.19,-15.07 29,-22.65 47.07,-21.71 a 58.1,58.1 0 0 1 14,2.49 6.7,6.7 0 0 0 2.83,0.23 8.3,8.3 0 0 0 5.64,-3.68 67.14,67.14 0 0 1 58.56,-29.16 62.92,62.92 0 0 1 8.6,1.06 67.21,67.21 0 0 1 43.51,29.49 z"
     class="cls-2" />
  <path
     style="fill:#231815"
     d="m 341.01562,135.0293 c -9.66581,0.36569 -10.48398,12.28359 -14.79492,18.87109 -4.71783,6.94392 -11.64183,12.09167 -19.65039,14.60938 -4.13,1.38 -7.59008,3.30984 -8.83008,7.83984 -1.29678,4.78297 0.84737,9.83225 5.18946,12.2207 3.45,1.9 7.43015,2.5 10.91015,4.5 3.88201,2.21581 7.3394,5.1038 10.21094,8.5293 2.47038,2.96344 4.45171,6.30235 5.86914,9.89062 1.77,4.48 2.42969,8.88 7.42969,11 4.21429,1.80879 9.11324,0.71664 12.16016,-2.71093 2.79,-3.22 3.21093,-7.94993 5.21093,-11.66992 4.73,-8.90003 12.33907,-14.93874 21.78907,-18.21876 4.62,-1.59997 8.37007,-3.99148 9.08007,-9.27148 0.60569,-4.47919 -1.66327,-8.75007 -5.49023,-10.83789 -0.05,-0.0311 -0.12135,-0.0672 -0.1875,-0.10352 -0.0843,-0.0438 -0.16622,-0.0911 -0.25195,-0.13281 -0.18548,-0.0908 -0.40835,-0.18624 -0.66016,-0.28711 -0.36037,-0.14618 -0.72763,-0.28044 -1.10938,-0.38867 -8.45819,-2.36201 -16.11919,-7.69579 -21.04101,-14.96875 -4.31,-6.59 -4.96914,-18.48109 -14.86914,-18.87109 -0.33063,-0.0128 -0.65303,-0.0118 -0.96485,0 z M 341.56,157.33 c 4.93394,9.29674 12.51707,16.9525 21.82086,21.87312 -8.94248,4.71772 -16.33481,11.91405 -21.29102,20.72657 L 341.5,201.07031 C 338.77877,195.81134 335.15314,191.00207 330.78906,187 c -3.36116,-3.0419 -7.09397,-5.64594 -11.10937,-7.75 -0.007,0.003 -0.0107,0.005 -0.0176,0.008 -0.002,-0.002 -0.004,-0.004 -0.006,-0.006 0.001,-7.4e-4 0.002,-0.001 0.004,-0.002 -0.007,-0.003 -0.004,-1.3e-4 -0.008,-0.002 -0.008,-0.009 -0.007,-0.0138 0.0274,0.002 1.82785,-0.92593 3.58866,-1.97863 5.26953,-3.15039 5.82443,-4.05009 10.79018,-9.21232 14.61133,-15.18945 0.70911,-1.14247 1.38763,-2.3792 1.99945,-3.58016 z m -21.91156,21.92586 c 0.002,0.002 0.004,0.002 0.006,0.004 -0.0403,0.0167 -0.0637,0.0284 -0.10352,0.0449 0.036,-0.0185 0.0614,-0.0302 0.0977,-0.0488 z"
     id="path18"
     inkscape:connector-curvature="0"
     sodipodi:nodetypes="ccccccccccccccccccccccccccccccccccccccc" />
  <path
     style="fill:#f4ec90"
     inkscape:connector-curvature="0"
     id="path28"
     d="M 387.67,293.08 A 119.71,119.71 0 0 1 358.78,324.7 59.22,59.22 0 0 0 348.49,297 130.32,130.32 0 0 0 387.67,293.08 Z"
     class="cls-3" />
  <path
     style="fill:#ffffff"
     inkscape:connector-curvature="0"
     id="path40"
     d="m 341.56,157.33 a 52.55,52.55 0 0 0 21.93,21.87 52.57,52.57 0 0 0 -21.4,20.8 l -0.59,1.07 a 50.46,50.46 0 0 0 -10.71,-14 53.7,53.7 0 0 0 -11.13,-7.79 43.92,43.92 0 0 0 5.27,-3.15 53.79,53.79 0 0 0 14.61,-15.19 c 0.74,-1.19 1.4,-2.39 2.02,-3.61 z"
     class="cls-2" />
  <path
     style="fill:#231815"
     inkscape:connector-curvature="0"
     id="path56"
     d="m 307.29,272.06 c 0.42,0.18 0.83,0.38 1.26,0.56 a 6.78,6.78 0 0 0 -0.9,0.3 c -0.12,-0.29 -0.23,-0.58 -0.36,-0.86 z"
     class="cls-1" />
  <path
     style="fill:#f4ec90"
     inkscape:connector-curvature="0"
     id="path80"
     d="m 235.56,220.68 a 82.48,82.48 0 0 0 -60.16,31.58 l -0.38,-0.08 a 114.67,114.67 0 0 1 1.95,-51 116.89,116.89 0 0 1 50.72,-68 132.39,132.39 0 0 0 7.87,87.5 z"
     class="cls-3" />
</svg>
