<?xml version="1.0" encoding="UTF-8" standalone="no"?>
<svg
   xmlns:dc="http://purl.org/dc/elements/1.1/"
   xmlns:cc="http://creativecommons.org/ns#"
   xmlns:rdf="http://www.w3.org/1999/02/22-rdf-syntax-ns#"
   xmlns:svg="http://www.w3.org/2000/svg"
   xmlns="http://www.w3.org/2000/svg"
   xmlns:sodipodi="http://sodipodi.sourceforge.net/DTD/sodipodi-0.dtd"
   xmlns:inkscape="http://www.inkscape.org/namespaces/inkscape"
   viewBox="0 0 500 500"
   version="1.1"
   id="svg103"
   sodipodi:docname="if_weather-14_1530379.svg"
   inkscape:version="0.92.4 5da689c313, 2019-01-14">
  <metadata
     id="metadata107">
    <rdf:RDF>
      <cc:Work
         rdf:about="">
        <dc:format>image/svg+xml</dc:format>
        <dc:type
           rdf:resource="http://purl.org/dc/dcmitype/StillImage" />
      </cc:Work>
    </rdf:RDF>
  </metadata>
  <sodipodi:namedview
     pagecolor="#ffffff"
     bordercolor="#666666"
     borderopacity="1"
     objecttolerance="10"
     gridtolerance="10"
     guidetolerance="10"
     inkscape:pageopacity="0"
     inkscape:pageshadow="2"
     inkscape:window-width="1366"
     inkscape:window-height="728"
     id="namedview105"
     showgrid="false"
     inkscape:zoom="181.01934"
     inkscape:cx="374.04219"
     inkscape:cy="346.83004"
     inkscape:window-x="0"
     inkscape:window-y="20"
     inkscape:window-maximized="0"
     inkscape:current-layer="svg103" />
  <defs
     id="defs4">
    <style
       id="style2">.cls-1{fill:#dcdddd;}.cls-2{fill:#231815;}.cls-3{fill:#f4ec90;}.cls-4{fill:#fff;}.cls-5{fill:#2ea7e0;}</style>
  </defs>
  <title
     id="title6" />
  <path
     style="fill:#dcdddd"
     inkscape:connector-curvature="0"
     id="path8"
     d="m 304.41,257 a 65.85,65.85 0 0 1 3.54,8.83 7.56,7.56 0 0 0 5.24,5.24 46.29,46.29 0 0 1 18.87,8.93 44.33,44.33 0 0 1 17,32.17 43,43 0 0 1 -3.3,19.37 45.18,45.18 0 0 1 -40.91,27.31 c -4.78,0.06 -7.19,3.78 -7.24,7.5 H 171.44 c 0,-3.73 -2.45,-7.45 -7.24,-7.5 -24.51,-0.27 -46.37,-16.6 -52.84,-40.4 a 55.22,55.22 0 0 1 25.64,-61.87 53.53,53.53 0 0 1 20.47,-6.75 56.91,56.91 0 0 1 16.11,0.41 60.36,60.36 0 0 1 7.85,1.85 c 3.34,1 6.63,-0.74 8.47,-3.45 a 67.42,67.42 0 0 1 48.69,-28.94 63.45,63.45 0 0 1 18.47,0.84 l 0.28,0.06 a 67.1,67.1 0 0 1 47.07,36.4 z m -34.25,105.57 c 3.62,-1 6.7,-5.42 5.24,-9.22 q -1.35,-3.54 -2.71,-7.06 L 268,334.14 a 9.27,9.27 0 0 0 -2.74,-3.85 7.05,7.05 0 0 0 -6.49,-1.38 l -0.26,0.08 c -3.5,1.14 -6.4,5.43 -5,9.14 l 2.13,5.54 5.25,13.66 c 1.5,3.78 5.11,6.39 9.27,5.24 z m -38,0 c 3.62,-1 6.7,-5.42 5.24,-9.22 l -6.88,-17.92 -0.49,-1.29 c -1.45,-3.77 -5,-6.38 -9.23,-5.23 a 6.8,6.8 0 0 0 -1.73,0.76 c -2.78,1.69 -4.73,5.29 -3.51,8.46 l 7.38,19.2 c 1.49,3.78 5.06,6.39 9.26,5.24 z m -38,0 c 3.62,-1 6.7,-5.42 5.24,-9.22 q -3.69,-9.6 -7.37,-19.21 c -1.46,-3.77 -5.05,-6.38 -9.23,-5.23 -3.62,1 -6.7,5.42 -5.24,9.22 q 3.69,9.6 7.37,19.2 c 1.54,3.78 5.13,6.39 9.31,5.24 z"
     class="cls-1" />
  <path
     style="fill:#231815"
     d="M 235.16602 94.662109 C 234.05064 94.671909 232.96187 94.872813 232 95.289062 C 230.42 95.955731 228.85272 96.689011 227.35938 97.402344 C 175.38296 122.32569 145.7708 178.2633 154.38086 235.25977 C 154.38066 235.26377 154.38281 235.26553 154.38281 235.26953 L 154.38086 235.26953 C 132.72982 238.29282 113.75154 251.29909 103.11914 270.40039 C 87.99916 298.05039 93.48924 333.76969 116.7793 355.17969 C 129.73401 367.04574 146.63182 373.68126 164.19922 373.80078 C 169.05922 373.85078 171.43945 370.08078 171.43945 366.30078 C 171.39945 362.57078 168.98922 358.85078 164.19922 358.80078 C 139.68922 358.53078 117.83016 342.20039 111.41016 318.40039 C 105.06387 294.38348 115.53583 269.08516 137 256.58008 C 143.27991 252.97182 150.22673 250.67549 157.41992 249.83008 C 162.78199 249.202 168.20614 249.3401 173.5293 250.24023 C 173.5263 250.22913 173.52353 250.21813 173.51953 250.20703 C 176.16107 250.64766 178.77035 251.26361 181.33008 252.05078 C 184.67008 253.08078 187.96078 251.30961 189.80078 248.59961 C 200.99496 232.27286 218.84771 221.72984 238.53906 219.69922 C 244.70394 219.07577 250.9269 219.35872 257.00977 220.53906 L 257.28906 220.59961 C 277.81435 224.71813 295.24136 238.18025 304.41016 257 C 305.80119 259.85419 306.98396 262.80525 307.94922 265.83008 C 308.66133 268.37188 310.64765 270.3582 313.18945 271.07031 C 320.07332 272.55593 326.52748 275.59263 332.06055 279.94922 C 342.06967 287.74573 348.24875 299.4572 349.05078 312.11914 C 349.46042 318.74439 348.33067 325.37452 345.75 331.49023 C 338.69824 347.8698 322.67139 358.56891 304.83984 358.80078 C 300.05984 358.86078 297.59961 362.58078 297.59961 366.30078 C 297.55961 370.08078 299.96984 373.86078 304.83984 373.80078 C 334.76051 373.4864 359.86146 351.14363 363.64062 321.46094 C 363.70063 320.91094 363.75078 320.37055 363.80078 319.81055 C 381.55477 306.21176 395.53198 288.30031 404.4707 267.80078 C 406.3957 263.36453 403.68781 256.08668 398.41211 256.24609 C 397.65844 256.26889 396.8525 256.44453 396 256.80078 C 394.36 257.54078 392.69 258.19078 391 258.80078 C 373.99458 265.04317 355.79007 267.32758 337.76953 265.48047 C 337.74003 265.46627 337.71299 265.45365 337.68359 265.43945 C 337.71259 265.43869 337.74053 265.44027 337.76953 265.43945 C 332.60582 261.9212 326.91476 259.28877 320.91016 257.56055 C 310.86016 231.22055 287.73937 210.82031 259.60938 205.82031 C 255.48296 205.09574 251.30763 204.68441 247.11914 204.58984 C 231.64868 174.95614 229.42259 140.16447 240.99023 108.80078 C 241.62356 107.13411 242.3 105.42643 243 103.75977 C 245.33187 98.202246 239.99931 94.619834 235.16602 94.662109 z M 222.68945 117.15039 C 215.16445 146.78513 218.1256 178.11077 231.07031 205.81055 C 210.98864 209.3696 192.93195 220.22771 180.37305 236.29688 C 176.87783 235.49481 173.32651 234.96075 169.75 234.69922 C 166.86462 218.22273 167.62239 201.30256 171.9707 185.15039 C 179.76522 156.93225 197.86446 132.66612 222.68945 117.15039 z M 382.66992 277.10938 C 377.05181 286.03474 370.22429 294.19888 362.49023 301.36914 C 362.49423 301.38594 362.496 301.40312 362.5 301.41992 C 360.7846 294.17528 357.76166 287.29483 353.5293 281.16992 C 363.34274 280.92516 373.16297 279.5549 382.66992 277.10938 z "
     id="path10" />
  <path
     style="fill:#231815"
     inkscape:connector-curvature="0"
     id="path16"
     d="m 367.51,159.52 c 5.59,-0.67 -1.95,7 1.38,7.91 l -0.65,-0.2 a 6.73,6.73 0 0 1 -4.65,-6.31 c 0.63,-0.25 1.26,-0.5 1.89,-0.73 a 10.06,10.06 0 0 1 2.03,-0.67 z"
     class="cls-2" />
  <path
     style="fill:#231815"
     d="M 336.00586 119.12891 C 326.34003 119.4946 325.52187 131.4125 321.21094 138 C 316.49077 144.93121 309.57102 150.06804 301.57031 152.58008 C 297.44031 153.96008 293.98023 155.88992 292.74023 160.41992 C 291.44345 165.20289 293.5876 170.25217 297.92969 172.64062 C 301.37969 174.54065 305.35984 175.14066 308.83984 177.14062 C 312.72003 179.35906 316.17699 182.24667 319.05078 185.66992 C 321.52116 188.63337 323.50249 191.97228 324.91992 195.56055 C 326.68992 200.04055 327.34961 204.44055 332.34961 206.56055 C 336.5639 208.36934 341.46286 207.27718 344.50977 203.84961 C 347.29977 200.62961 347.7207 195.89969 349.7207 192.17969 C 354.4507 183.26969 362.05977 177.24094 371.50977 173.96094 C 376.12977 172.36094 379.87984 169.96945 380.58984 164.68945 C 381.20767 160.12052 378.24177 155.62954 374.16406 153.56445 C 373.75983 153.34374 373.33824 153.14312 372.88086 153 C 372.83236 152.9866 372.78656 152.9832 372.73828 152.9707 C 364.2102 150.63363 356.79687 145.32524 351.83984 138 C 347.52984 131.41 346.8707 119.52086 336.9707 119.13086 C 336.64008 119.11806 336.31766 119.11711 336.00586 119.12891 z M 336.53906 141.34961 C 341.46608 150.64259 349.17482 158.30878 358.4707 163.23047 C 349.54218 167.94826 342.04032 175.19836 337.08984 184 L 336.5 185.07031 C 333.77877 179.81134 330.15314 175.07238 325.78906 171.07031 C 322.45113 168.04 318.74489 165.44209 314.75781 163.33789 C 316.54372 162.42738 318.26519 161.39567 319.91016 160.25 C 325.73149 156.1969 330.69605 151.03521 334.51953 145.06055 C 335.23953 143.90055 335.90906 142.57961 336.53906 141.34961 z "
     id="path18" />
  <path
     style="fill:#f4ec90"
     inkscape:connector-curvature="0"
     id="path20"
     d="m 353.53,281.17 a 129.68,129.68 0 0 0 29.14,-4.06 120.86,120.86 0 0 1 -20.14,24.29 59.84,59.84 0 0 0 -9,-20.23 z"
     class="cls-3" />
  <path
     style="fill:#ffffff"
     inkscape:connector-curvature="0"
     id="path44"
     d="M 350.48,168.41 A 51.24,51.24 0 0 0 337.09,184 l -0.59,1.07 a 50.46,50.46 0 0 0 -10.71,-14 53.7,53.7 0 0 0 -11.13,-7.79 43.92,43.92 0 0 0 5.27,-3.15 53.93,53.93 0 0 0 14.61,-15.19 c 0.74,-1.16 1.39,-2.36 2,-3.59 a 52.52,52.52 0 0 0 21.93,21.88 51.68,51.68 0 0 0 -7.99,5.18 z"
     class="cls-4" />
  <path
     style="fill:#2ea7e0"
     inkscape:connector-curvature="0"
     id="path52"
     d="m 291.87,396.23 c 1.46,3.8 -1.62,8.23 -5.24,9.22 -4.18,1.15 -7.77,-1.46 -9.22,-5.23 L 270,381 c -1.46,-3.8 1.62,-8.23 5.24,-9.22 4.18,-1.15 7.77,1.46 9.22,5.24 z"
     class="cls-5" />
  <path
     style="fill:#2ea7e0"
     d="M 260.88867 328.63672 C 260.18294 328.62282 259.47913 328.71502 258.80078 328.91016 L 258.53906 328.99023 C 255.01906 330.13023 252.14055 334.43064 253.56055 338.14062 L 255.68945 343.67969 C 255.69045 343.67995 255.69236 343.67942 255.69336 343.67969 L 260.93945 357.32031 C 262.38945 361.10031 265.98016 363.71055 270.16016 362.56055 C 273.78016 361.57055 276.86039 357.13984 275.40039 353.33984 C 274.50706 350.97984 273.60279 348.62596 272.68945 346.2793 C 272.68845 346.27919 272.68655 346.27941 272.68555 346.2793 L 268.0293 334.14062 C 267.46536 332.645 266.50223 331.31167 265.27539 330.28711 C 265.27993 330.28783 265.28452 330.28834 265.28906 330.28906 C 264.05446 329.25113 262.5013 328.66791 260.88867 328.63672 z "
     id="path56" />
  <path
     style="fill:#2ea7e0"
     inkscape:connector-curvature="0"
     id="path62"
     d="m 253.91,396.23 c 1.46,3.8 -1.63,8.23 -5.24,9.22 -4.18,1.15 -7.78,-1.46 -9.23,-5.23 q -3.67,-9.6 -7.37,-19.21 c -1.46,-3.8 1.62,-8.23 5.24,-9.22 4.18,-1.15 7.77,1.46 9.22,5.24 z"
     class="cls-5" />
  <path
     style="fill:#2ea7e0"
     d="M 223.11133 328.64258 C 222.38004 328.61097 221.61984 328.69453 220.83984 328.91016 A 6.8 6.8 0 0 0 219.10938 329.66992 C 216.32937 331.35992 214.37961 335.00086 215.59961 338.13086 L 222.98047 357.33008 C 224.43047 361.11008 228.01922 363.72031 232.19922 362.57031 C 235.81922 361.58031 238.89945 357.14961 237.43945 353.34961 L 230.56055 335.42969 L 230.07031 334.14062 C 228.89219 331.0775 226.28024 328.77956 223.11133 328.64258 z "
     id="path78" />
  <path
     style="fill:#f4ec90"
     inkscape:connector-curvature="0"
     id="path84"
     d="m 222.69,117.15 a 132.43,132.43 0 0 0 8.38,88.66 82.65,82.65 0 0 0 -50.68,30.49 70.48,70.48 0 0 0 -10.64,-1.6 114.55,114.55 0 0 1 2.25,-49.54 116.89,116.89 0 0 1 50.69,-68.01 z"
     class="cls-3" />
  <path
     style="fill:#2ea7e0"
     inkscape:connector-curvature="0"
     id="path86"
     d="m 216,396.23 c 1.46,3.8 -1.63,8.23 -5.24,9.22 -4.18,1.15 -7.78,-1.46 -9.23,-5.23 q -3.69,-9.6 -7.37,-19.21 c -1.46,-3.8 1.62,-8.23 5.24,-9.22 4.18,-1.15 7.77,1.46 9.22,5.24 z"
     class="cls-5" />
  <path
     style="fill:#2ea7e0"
     inkscape:connector-curvature="0"
     id="path88"
     d="m 199.48,353.35 c 1.46,3.8 -1.62,8.23 -5.24,9.22 -4.18,1.15 -7.77,-1.46 -9.23,-5.24 q -3.67,-9.6 -7.37,-19.2 c -1.46,-3.8 1.62,-8.23 5.24,-9.22 4.18,-1.15 7.77,1.46 9.23,5.23 q 3.68,9.6 7.37,19.21 z"
     class="cls-5" />
</svg>
