<?xml version="1.0" encoding="UTF-8" standalone="no"?>
<svg
   xmlns:dc="http://purl.org/dc/elements/1.1/"
   xmlns:cc="http://creativecommons.org/ns#"
   xmlns:rdf="http://www.w3.org/1999/02/22-rdf-syntax-ns#"
   xmlns:svg="http://www.w3.org/2000/svg"
   xmlns="http://www.w3.org/2000/svg"
   xmlns:sodipodi="http://sodipodi.sourceforge.net/DTD/sodipodi-0.dtd"
   xmlns:inkscape="http://www.inkscape.org/namespaces/inkscape"
   viewBox="0 0 500 500"
   version="1.1"
   id="svg81"
   sodipodi:docname="iconfinder_weather-03_1530390.svg"
   inkscape:version="0.92.4 5da689c313, 2019-01-14">
  <metadata
     id="metadata85">
    <rdf:RDF>
      <cc:Work
         rdf:about="">
        <dc:format>image/svg+xml</dc:format>
        <dc:type
           rdf:resource="http://purl.org/dc/dcmitype/StillImage" />
      </cc:Work>
    </rdf:RDF>
  </metadata>
  <sodipodi:namedview
     pagecolor="#ffffff"
     bordercolor="#666666"
     borderopacity="1"
     objecttolerance="10"
     gridtolerance="10"
     guidetolerance="10"
     inkscape:pageopacity="0"
     inkscape:pageshadow="2"
     inkscape:window-width="1366"
     inkscape:window-height="728"
     id="namedview83"
     showgrid="false"
     inkscape:zoom="2"
     inkscape:cx="431.84384"
     inkscape:cy="279.75528"
     inkscape:window-x="0"
     inkscape:window-y="20"
     inkscape:window-maximized="0"
     inkscape:current-layer="svg81" />
  <defs
     id="defs4">
    <style
       id="style2">.cls-1{fill:#dcdddd;}.cls-2{fill:#231815;}.cls-3{fill:#2ea7e0;}.cls-4{fill:#f8b62d;}</style>
  </defs>
  <title
     id="title6" />
  <path
     style="fill:#dcdddd"
     inkscape:connector-curvature="0"
     id="path8"
     d="m 369.54,290.92 c 22.53,4.88 38.5,25.74 35.61,49 -2.75,22.09 -22,38.41 -44,38.7 -4.78,0.06 -7.2,3.78 -7.24,7.5 H 227.78 c 0,-3.72 -2.44,-7.45 -7.24,-7.5 -24.5,-0.27 -46.36,-16.6 -52.84,-40.4 a 54.66,54.66 0 0 1 3,-36.61 55.56,55.56 0 0 1 8.47,-13.42 54.11,54.11 0 0 1 14.15,-11.79 c 13.58,-7.83 29.54,-9.08 44.43,-4.49 3.34,1 6.63,-0.74 8.47,-3.45 14.64,-21.53 41.42,-33.13 67.15,-28.1 a 66.85,66.85 0 0 1 13.82,4.31 c 0.87,0.38 1.73,0.77 2.57,1.18 0.84,0.41 1.94,1 2.89,1.49 a 67.07,67.07 0 0 1 31.67,38.31 7.54,7.54 0 0 0 5.22,5.27 z m -43,91.5 c 3.61,-1 6.7,-5.42 5.24,-9.22 L 324.37,354 c -1.45,-3.78 -5,-6.39 -9.22,-5.24 -3.62,1 -6.7,5.42 -5.24,9.22 l 7.37,19.2 c 1.45,3.82 5.05,6.39 9.23,5.24 z m -38,0 c 3.61,-1 6.7,-5.42 5.24,-9.22 L 286.41,354 c -1.45,-3.78 -5,-6.39 -9.22,-5.24 -3.62,1 -6.7,5.42 -5.24,9.22 l 7.37,19.2 c 1.45,3.82 5.05,6.39 9.23,5.24 z m -38,0 c 3.61,-1 6.69,-5.42 5.23,-9.22 Q 252.1,363.6 248.4,354 c -1.45,-3.78 -5,-6.39 -9.23,-5.24 -3.61,1 -6.69,5.42 -5.23,9.22 q 3.67,9.6 7.37,19.2 c 1.5,3.82 5.1,6.39 9.28,5.24 z"
     class="cls-1" />
  <path
     style="fill:#231815"
     inkscape:connector-curvature="0"
     id="path10"
     d="m 404.07,232.93 c 9.67,0 9.65,15 0,15 h -33.65 c -9.67,0 -9.65,-15 0,-15 z"
     class="cls-2" />
  <path
     style="fill:#231815"
     d="M 245.48633 143.72266 C 217.20245 143.91338 189.23469 156.50781 171 178.78906 C 146 209.36906 141.76906 253.02539 161.03906 287.52539 C 160.4648 288.38152 159.8985 289.41627 159.46094 290.2207 C 144.30094 317.8707 149.83914 353.59 173.11914 375 C 186.07049 386.87507 202.96812 393.52095 220.53906 393.65039 C 225.39906 393.70039 227.7793 389.93039 227.7793 386.15039 C 227.7493 382.43039 225.33906 378.70039 220.53906 378.65039 C 195.99906 378.38039 174.17969 362.05 167.67969 338.25 C 164.42667 326.06617 165.48655 313.13232 170.67969 301.64062 C 172.84656 296.78503 175.69922 292.26563 179.15039 288.2207 C 183.15866 283.51054 187.94479 279.51268 193.30078 276.41992 C 206.88078 268.58992 222.84047 267.33969 237.73047 271.92969 C 241.07047 272.95969 244.35922 271.19047 246.19922 268.48047 C 260.83922 246.95047 287.61961 235.38086 313.34961 240.38086 C 318.09876 241.31255 322.73269 242.75722 327.16992 244.68945 C 327.16972 244.69245 327.17013 244.69622 327.16992 244.69922 C 328.03992 245.07922 328.90023 245.47086 329.74023 245.88086 C 330.72023 246.37086 331.63086 246.84914 332.63086 247.36914 C 335.69566 249.04441 338.71439 250.98646 341.48047 253.11914 C 352.25159 261.40265 360.24319 272.77138 364.39062 285.71094 C 365.09981 288.25405 367.08748 290.24099 369.63086 290.94922 C 392.16086 295.79922 408.13023 316.65922 405.24023 339.94922 C 402.45023 362.03922 383.24023 378.36039 361.24023 378.65039 C 356.46023 378.71039 354 382.43039 354 386.15039 L 353.94922 386.15039 C 353.89922 389.93039 356.30945 393.71039 361.18945 393.65039 C 391.10807 393.33551 416.2058 370.99177 419.98047 341.31055 C 423.52047 312.55055 404.68 285.29016 377.25 277.41016 C 370.58523 259.89036 358.21436 245.11072 342.15039 235.44922 C 339.83078 196.61731 314.76253 162.83372 278.26953 149.35938 C 267.66922 145.47249 256.55393 143.64803 245.48633 143.72266 z M 245.74219 158.62109 C 250.95052 158.61709 256.19065 159.125 261.39062 160.17969 C 295.09211 167.13699 320.95545 194.26798 326.31055 228.25977 C 322.93846 227.16279 319.49193 226.28699 316 225.66992 C 285.96863 220.34835 255.52567 232.08503 236.78906 256.15039 C 213.22883 250.78609 188.50818 257.75815 171.24023 274.66016 C 160.1057 249.93152 161.74477 221.32436 175.63086 198.0293 C 190.43023 173.60273 217.61718 158.64449 245.74219 158.62109 z "
     id="path12" />
  <path
     style="fill:#231815"
     inkscape:connector-curvature="0"
     id="path14"
     d="m 379.05,154.7 c 8.38,-4.84 15.93,8.13 7.57,13 l -29.14,16.83 c -8.39,4.84 -15.93,-8.13 -7.57,-12.95 z"
     class="cls-2" />
  <path
     style="fill:#2ea7e0"
     inkscape:connector-curvature="0"
     id="path20"
     d="m 348.21,416.08 c 1.46,3.8 -1.62,8.23 -5.23,9.22 -4.18,1.15 -7.78,-1.45 -9.23,-5.23 q -3.69,-9.6 -7.37,-19.21 c -1.46,-3.8 1.62,-8.23 5.23,-9.22 4.18,-1.15 7.78,1.46 9.23,5.24 q 3.69,9.6 7.37,19.2 z"
     class="cls-3" />
  <path
     style="fill:#231815"
     inkscape:connector-curvature="0"
     id="path22"
     d="m 342.32,240.92 c 0,-0.14 0,-0.28 0,-0.42 0.01,0.14 0.01,0.28 0,0.42 z"
     class="cls-2" />
  <path
     style="fill:#2ea7e0"
     inkscape:connector-curvature="0"
     id="path32"
     d="m 331.75,373.2 c 1.46,3.8 -1.63,8.23 -5.24,9.22 -4.18,1.15 -7.78,-1.46 -9.23,-5.24 L 309.91,358 c -1.46,-3.8 1.62,-8.23 5.24,-9.22 4.18,-1.15 7.77,1.46 9.22,5.24 z"
     class="cls-3" />
  <path
     style="fill:#231815"
     inkscape:connector-curvature="0"
     id="path34"
     d="m 318.34,99.37 c 4.83,-8.37 17.79,-0.8 12.95,7.57 l -16.82,29.15 c -4.83,8.36 -17.79,0.8 -13,-7.57 z"
     class="cls-2" />
  <path
     style="fill:#2ea7e0"
     inkscape:connector-curvature="0"
     id="path46"
     d="m 310.25,416.08 c 1.46,3.8 -1.62,8.23 -5.23,9.22 -4.18,1.15 -7.78,-1.45 -9.23,-5.23 l -7.38,-19.21 c -1.46,-3.8 1.63,-8.23 5.24,-9.22 4.18,-1.15 7.78,1.46 9.23,5.24 q 3.69,9.6 7.37,19.2 z"
     class="cls-3" />
  <path
     style="fill:#f8b62d"
     inkscape:connector-curvature="0"
     id="path48"
     d="m 261.39,160.18 a 82.63,82.63 0 0 1 64.92,68.08 76.17,76.17 0 0 0 -10.31,-2.59 82.28,82.28 0 0 0 -79.21,30.48 71.08,71.08 0 0 0 -65.5,18.51 83.06,83.06 0 0 1 4.34,-76.66 c 17.54,-28.92 52.48,-44.57 85.76,-37.82 z"
     class="cls-4" />
  <path
     style="fill:#2ea7e0"
     inkscape:connector-curvature="0"
     id="path50"
     d="m 293.79,373.2 c 1.46,3.8 -1.63,8.23 -5.24,9.22 -4.18,1.15 -7.78,-1.46 -9.23,-5.24 L 272,358 c -1.46,-3.8 1.62,-8.23 5.24,-9.22 4.18,-1.15 7.77,1.46 9.22,5.24 z"
     class="cls-3" />
  <path
     style="fill:#2ea7e0"
     inkscape:connector-curvature="0"
     id="path52"
     d="m 272.29,416.08 c 1.46,3.8 -1.62,8.23 -5.24,9.22 -4.18,1.15 -7.77,-1.45 -9.22,-5.23 l -7.38,-19.2 c -1.46,-3.81 1.63,-8.24 5.24,-9.23 4.18,-1.15 7.78,1.46 9.23,5.24 z"
     class="cls-3" />
  <path
     style="fill:#2ea7e0"
     inkscape:connector-curvature="0"
     id="path54"
     d="m 255.82,373.2 c 1.46,3.8 -1.62,8.23 -5.23,9.22 -4.18,1.15 -7.78,-1.46 -9.23,-5.24 q -3.69,-9.6 -7.37,-19.2 c -1.46,-3.8 1.62,-8.23 5.23,-9.22 4.18,-1.15 7.78,1.46 9.23,5.24 q 3.69,9.6 7.37,19.2 z"
     class="cls-3" />
  <path
     style="fill:#231815"
     inkscape:connector-curvature="0"
     id="path56"
     d="m 253.06,81.92 v 33.65 c 0,9.67 -15,9.66 -15,0 V 81.92 c 0,-9.67 15,-9.65 15,0 z"
     class="cls-2" />
  <path
     style="fill:#231815"
     inkscape:connector-curvature="0"
     id="path62"
     d="m 189.61,128.52 c 4.84,8.38 -8.13,15.92 -13,7.57 L 159.78,106.94 C 155,98.56 168,91 172.78,99.37 Z"
     class="cls-2" />
  <path
     style="fill:#231815"
     inkscape:connector-curvature="0"
     id="path74"
     d="m 141.22,171.53 c 8.37,4.83 0.8,17.78 -7.57,12.95 L 104.5,167.65 c -8.36,-4.83 -0.8,-17.79 7.57,-13 z"
     class="cls-2" />
  <path
     style="fill:#231815"
     inkscape:connector-curvature="0"
     id="path76"
     d="m 133.65,296.38 c 8.38,-4.84 15.93,8.13 7.57,12.95 l -29.15,16.83 c -8.38,4.84 -15.92,-8.13 -7.57,-13 z"
     class="cls-2" />
  <path
     style="fill:#231815"
     inkscape:connector-curvature="0"
     id="path78"
     d="m 120.71,232.93 c 9.66,0 9.65,15 0,15 H 87.05 c -9.67,0 -9.65,-15 0,-15 z"
     class="cls-2" />
</svg>
