<?xml version="1.0" encoding="UTF-8" standalone="no"?>
<svg
   xmlns:dc="http://purl.org/dc/elements/1.1/"
   xmlns:cc="http://creativecommons.org/ns#"
   xmlns:rdf="http://www.w3.org/1999/02/22-rdf-syntax-ns#"
   xmlns:svg="http://www.w3.org/2000/svg"
   xmlns="http://www.w3.org/2000/svg"
   xmlns:sodipodi="http://sodipodi.sourceforge.net/DTD/sodipodi-0.dtd"
   xmlns:inkscape="http://www.inkscape.org/namespaces/inkscape"
   viewBox="0 0 500 500"
   version="1.1"
   id="svg111"
   sodipodi:docname="if_weather-23_1530363.svg"
   inkscape:version="0.92.4 5da689c313, 2019-01-14">
  <metadata
     id="metadata115">
    <rdf:RDF>
      <cc:Work
         rdf:about="">
        <dc:format>image/svg+xml</dc:format>
        <dc:type
           rdf:resource="http://purl.org/dc/dcmitype/StillImage" />
      </cc:Work>
    </rdf:RDF>
  </metadata>
  <sodipodi:namedview
     pagecolor="#ffffff"
     bordercolor="#666666"
     borderopacity="1"
     objecttolerance="10"
     gridtolerance="10"
     guidetolerance="10"
     inkscape:pageopacity="0"
     inkscape:pageshadow="2"
     inkscape:window-width="1366"
     inkscape:window-height="728"
     id="namedview113"
     showgrid="false"
     inkscape:zoom="1.5644738"
     inkscape:cx="205.95207"
     inkscape:cy="281.45023"
     inkscape:window-x="0"
     inkscape:window-y="20"
     inkscape:window-maximized="0"
     inkscape:current-layer="svg111" />
  <defs
     id="defs4">
    <style
       id="style2">.cls-1{fill:#231815;}.cls-2{fill:#dcdddd;}.cls-3{fill:#faee00;}.cls-4{fill:none;stroke:#231815;stroke-miterlimit:10;}</style>
  </defs>
  <title
     id="title6" />
  <path
     style="fill:#231815"
     inkscape:connector-curvature="0"
     id="path8"
     d="m 292.48,141 a 7.49,7.49 0 0 0 -0.85,3.51 c 0,-1.31 -0.05,-2.6 -0.12,-3.89 z"
     class="cls-1" />
  <path
     style="fill:#231815"
     inkscape:connector-curvature="0"
     id="path10"
     d="m 135.55,178.76 a 78.8,78.8 0 0 0 3.61,7 62.74,62.74 0 0 0 -9.32,13.13 c -1,-1.44 -1.94,-2.9 -2.86,-4.41 -0.57,-0.94 -1.11,-1.89 -1.65,-2.85 a 67.83,67.83 0 0 1 10.22,-12.87 z"
     class="cls-1" />
  <path
     style="fill:#231815"
     inkscape:connector-curvature="0"
     id="path12"
     d="m 290.62,132.37 q 0.64,4.08 0.89,8.28 A 73.75,73.75 0 0 0 208,163.41 l -2,-1.83 c -1.65,-0.51 -3.31,-0.94 -5,-1.32 a 82.26,82.26 0 0 1 79.22,-30.48 75.08,75.08 0 0 1 10.4,2.59 z"
     class="cls-1" />
  <path
     style="fill:#231815"
     inkscape:connector-curvature="0"
     id="path14"
     d="m 343.07,185.8 -5.24,-5.24 c 1.26,0.27 2.5,0.6 3.73,0.95 0.53,1.42 1.05,2.84 1.51,4.29 z"
     class="cls-1" />
  <path
     style="fill:#231815"
     inkscape:connector-curvature="0"
     id="path16"
     d="m 127,194.5 c 0.92,1.51 1.88,3 2.86,4.41 a 62.23,62.23 0 0 0 55,91.34 h 7.24 c 0,3.78 -2.38,7.56 -7.24,7.5 a 70.86,70.86 0 0 1 -47.42,-18.61 c -23.29,-21.42 -28.83,-57.13 -13.66,-84.79 0.5,-0.91 1,-1.82 1.56,-2.7 0.53,0.96 1.07,1.91 1.66,2.85 z"
     class="cls-1" />
  <path
     style="fill:#231815"
     inkscape:connector-curvature="0"
     id="path18"
     d="m 291.51,140.65 c 0.07,1.29 0.11,2.58 0.12,3.89 0.01,1.31 -0.07,2.85 -0.15,4.27 a 67,67 0 0 0 -13.82,-4.31 c -25.74,-5 -52.51,6.56 -67.16,28.1 -1.84,2.71 -5.13,4.47 -8.47,3.45 -14.89,-4.6 -30.85,-3.34 -44.43,4.49 a 54.24,54.24 0 0 0 -14.15,11.79 c -1.54,-2.13 -3,-4.31 -4.29,-6.55 a 62.38,62.38 0 0 1 64.87,-17 q 1.86,-2.79 4,-5.4 a 73.75,73.75 0 0 1 83.53,-22.76 z"
     class="cls-1" />
  <path
     style="fill:#231815"
     inkscape:connector-curvature="0"
     id="path20"
     d="m 292.48,141 a 74.23,74.23 0 0 1 13.39,7 c -1.64,3.24 -5.6,4.39 -8.94,3.48 -0.94,-0.52 -1.91,-1 -2.88,-1.48 a 7,7 0 0 1 -2.42,-5.45 7.49,7.49 0 0 1 0.85,-3.55 z"
     class="cls-1" />
  <path
     style="fill:#231815"
     inkscape:connector-curvature="0"
     id="path22"
     d="m 290.62,132.37 a 77.74,77.74 0 0 1 15.83,7.19 c 0.09,1.48 0.16,3 0.17,4.46 -0.39,-7.83 -11,-8.82 -14.14,-3 l -1,-0.38 q -0.21,-4.19 -0.86,-8.27 z"
     class="cls-1" />
  <path
     style="fill:#231815"
     d="M 262.80859 231.06641 C 259.56016 231.06125 256.31055 231.07836 253.06055 231.13086 C 250.78722 231.17086 248.51356 231.22236 246.24023 231.28906 C 241.61023 231.45906 239.16016 234.11039 237.16016 237.40039 C 236.19016 238.99039 235.33008 240.72039 234.33008 242.40039 C 229.36341 250.86706 224.39945 259.34031 219.43945 267.82031 L 208.61914 286.26953 C 207.92419 287.45919 207.56414 288.90263 207.61914 290.2793 L 207.64258 290.2793 A 7.58 7.58 0 0 0 215.09961 297.51953 L 233.74023 297.51953 L 203.0293 359.89062 C 199.9293 364.67063 203.80937 370.48906 208.60938 371.28906 A 6.18 6.18 0 0 0 215.4707 368.41016 C 241.30764 342.35996 267.14042 316.30686 292.9707 290.25 L 293 290.25 C 294.6 288.65 296.15 286.99086 297.75 285.38086 L 309.67969 273.38086 C 314.24969 268.78086 310.90086 260.58008 304.38086 260.58008 L 286.38086 260.58008 L 298.43945 242.58008 C 301.65945 237.76008 297.38094 231.28906 291.96094 231.28906 C 282.28594 231.28906 272.55391 231.08187 262.80859 231.06641 z M 249.42969 246.25 L 277.96094 246.25 L 265.90039 264.25 C 262.67039 269.07 266.96086 275.53906 272.38086 275.53906 L 286.38086 275.53906 L 271.80078 290.25 L 271.81055 290.25 C 259.98695 302.16021 248.16966 314.07648 236.35938 326 L 252.21094 293.83984 A 8.41 8.41 0 0 0 253.07031 290.25 C 253.30079 286.05121 249.94528 282.4764 245.74023 282.5 L 228.18945 282.5 L 249.42969 246.25 z "
     id="path24" />
  <path
     style="fill:#231815"
     inkscape:connector-curvature="0"
     id="path28"
     d="m 296.93,151.47 c 3.34,0.91 7.3,-0.24 8.94,-3.48 0.21,0.15 0.43,0.29 0.65,0.43 -0.14,2.95 -0.42,5.88 -0.82,8.78 a 66.41,66.41 0 0 0 -8.77,-5.73 z"
     class="cls-1" />
  <path
     style="fill:#231815"
     inkscape:connector-curvature="0"
     id="path30"
     d="m 206,161.58 2,1.83 q -2.09,2.61 -4,5.4 a 62.53,62.53 0 0 0 -6.88,-1.79 l 0.4,-2 z"
     class="cls-1" />
  <path
     style="fill:#231815"
     inkscape:connector-curvature="0"
     id="path32"
     d="m 291.63,144.54 a 7,7 0 0 0 2.42,5.45 c -0.85,-0.41 -1.71,-0.81 -2.57,-1.18 0.08,-1.42 0.14,-2.81 0.15,-4.27 z"
     class="cls-1" />
  <path
     style="fill:#231815"
     inkscape:connector-curvature="0"
     id="path34"
     d="m 122.61,228 a 61.92,61.92 0 0 1 7.23,-29.11 c 1.62,2.37 3.34,4.65 5.14,6.84 a 54.59,54.59 0 0 0 -3,36.61 c 6.47,23.8 28.33,40.12 52.84,40.39 4.79,0.06 7.2,3.78 7.24,7.5 h -7.24 A 62.23,62.23 0 0 1 122.61,228 Z"
     class="cls-1" />
  <path
     style="fill:#231815"
     inkscape:connector-curvature="0"
     id="path36"
     d="m 201,160.26 c 1.67,0.38 3.33,0.81 5,1.32 l -8.45,3.42 q 1.68,-2.43 3.45,-4.74 z"
     class="cls-1" />
  <path
     style="fill:#dcdddd"
     inkscape:connector-curvature="0"
     id="path38"
     d="m 304.38,260.59 h -18 l 12.06,-18 c 3.22,-4.82 -1.06,-11.29 -6.48,-11.29 -12.94,0 -25.95,-0.37 -38.9,-0.16 q -3.42,0.06 -6.82,0.16 c -4.63,0.17 -7.06,2.82 -9.08,6.11 -1,1.58 -1.85,3.31 -2.83,5 q -7.45,12.7 -14.89,25.42 l -10.82,18.45 a 7.22,7.22 0 0 0 -1,4 h -15.53 c 0,-3.72 -2.45,-7.44 -7.24,-7.5 -24.51,-0.27 -46.37,-16.59 -52.84,-40.39 a 54.59,54.59 0 0 1 3,-36.61 55.48,55.48 0 0 1 8.47,-13.42 54.24,54.24 0 0 1 14.15,-11.79 c 13.58,-7.83 29.54,-9.09 44.43,-4.49 3.34,1 6.63,-0.74 8.47,-3.45 14.65,-21.54 41.42,-33.14 67.16,-28.1 a 67,67 0 0 1 13.82,4.31 c 0.86,0.37 1.72,0.77 2.57,1.18 0.85,0.41 1.94,1 2.88,1.48 a 67.1,67.1 0 0 1 31.67,38.31 7.52,7.52 0 0 0 5.24,5.24 c 22.53,4.89 38.5,25.75 35.61,49 -2.74,22.1 -22,38.41 -44,38.7 -4.78,0.07 -7.19,3.79 -7.24,7.5 H 293 c 1.6,-1.6 3.19,-3.21 4.79,-4.82 l 11.93,-12 c 4.53,-4.64 1.18,-12.84 -5.34,-12.84 z"
     class="cls-2" />
  <path
     style="fill:#faee00"
     inkscape:connector-curvature="0"
     id="path40"
     d="m 277.92,246.3 -12.06,18 c -3.23,4.82 1.06,11.29 6.48,11.29 h 14 l -14.54,14.66 h -18.73 a 7.3,7.3 0 0 0 -7.33,-7.7 h -17.55 l 21.24,-36.25 z"
     class="cls-3" />
  <path
     style="fill:#231815"
     inkscape:connector-curvature="0"
     id="path42"
     d="m 306.63,144.61 c 0,0.14 0,0.28 0,0.42 0,-0.14 0,-0.28 0,-0.42 z"
     class="cls-1" />
  <path
     style="fill:#231815"
     inkscape:connector-curvature="0"
     id="path44"
     d="m 139.16,185.78 c 1.31,2.24 2.75,4.42 4.29,6.55 A 55.48,55.48 0 0 0 135,205.75 c -1.8,-2.19 -3.52,-4.47 -5.14,-6.84 a 62.74,62.74 0 0 1 9.3,-13.13 z"
     class="cls-1" />
  <path
     style="fill:#231815"
     inkscape:connector-curvature="0"
     id="path46"
     d="m 305.87,148 a 7.32,7.32 0 0 0 0.75,-2.88 c 0,1.11 -0.05,2.21 -0.1,3.31 -0.22,-0.15 -0.44,-0.29 -0.65,-0.43 z"
     class="cls-1" />
  <path
     style="fill:#231815"
     inkscape:connector-curvature="0"
     id="path48"
     d="m 325.49,290.25 a 51.75,51.75 0 0 0 10.35,-102.46 74,74 0 0 0 -29.32,-39.37 c 0.05,-1.1 0.09,-2.2 0.1,-3.31 V 145 c 0,-0.14 0,-0.28 0,-0.42 v -0.07 c 0,-0.18 0,-0.35 0,-0.52 0,-1.5 -0.08,-3 -0.17,-4.46 a 83.68,83.68 0 0 1 35.11,41.95 c -1.23,-0.35 -2.47,-0.68 -3.73,-0.95 l 5.24,5.24 c -0.46,-1.45 -1,-2.87 -1.51,-4.29 27.42,7.88 46.27,35.15 42.73,63.9 a 59.9,59.9 0 0 1 -58.8,52.34 c -4.87,0.07 -7.28,-3.71 -7.24,-7.5 z"
     class="cls-1" />
  <path
     style="fill:#231815"
     inkscape:connector-curvature="0"
     id="path50"
     d="m 139.16,185.78 a 78.8,78.8 0 0 1 -3.61,-7 71.05,71.05 0 0 1 65.45,-18.52 q -1.82,2.31 -3.49,4.77 l -0.4,2 a 62.19,62.19 0 0 0 -58,18.76 z"
     class="cls-1" />
  <path
     style="fill:#231815"
     inkscape:connector-curvature="0"
     id="path52"
     d="m 292.48,141 c 3.1,-5.83 13.75,-4.84 14.14,3 0,0.17 0,0.34 0,0.52 v 0.07 c 0,0.14 0,0.28 0,0.42 v 0.08 a 7.32,7.32 0 0 1 -0.75,2.88 74.23,74.23 0 0 0 -13.39,-6.97 z"
     class="cls-1" />
  <path
     style="fill:#231815"
     inkscape:connector-curvature="0"
     id="path54"
     d="m 377.24,238.51 a 51.74,51.74 0 0 1 -51.75,51.74 h -7.24 c 0,-3.71 2.46,-7.43 7.24,-7.5 22,-0.29 41.22,-16.6 44,-38.7 2.89,-23.28 -13.08,-44.14 -35.61,-49 a 7.52,7.52 0 0 1 -5.24,-5.24 66.75,66.75 0 0 0 -22.9,-32.58 c 0.4,-2.9 0.68,-5.83 0.82,-8.78 a 74,74 0 0 1 29.32,39.37 51.77,51.77 0 0 1 41.36,50.69 z"
     class="cls-1" />
  <path
     style="fill:#faee00"
     inkscape:connector-curvature="0"
     id="path56"
     d="M 271.84,290.25 Q 254.1,308.14 236.36,326 l 15.85,-32.19 a 8.41,8.41 0 0 0 0.86,-3.59 z"
     class="cls-3" />
  <path
     style="fill:none;stroke:#231815;stroke-miterlimit:10"
     inkscape:connector-curvature="0"
     id="path58"
     d="m 125.33,191.65 c -0.54,0.88 -1.06,1.79 -1.56,2.7 -15.17,27.66 -9.63,63.37 13.66,84.79 a 70.86,70.86 0 0 0 47.42,18.61 c 4.86,0.06 7.27,-3.72 7.24,-7.5"
     class="cls-4" />
  <path
     style="fill:none;stroke:#231815;stroke-miterlimit:10"
     inkscape:connector-curvature="0"
     id="path60"
     d="m 201,160.26 a 71.05,71.05 0 0 0 -65.49,18.5"
     class="cls-4" />
  <path
     style="fill:none;stroke:#231815;stroke-miterlimit:10"
     inkscape:connector-curvature="0"
     id="path62"
     d="M 290.62,132.37 A 75.08,75.08 0 0 0 280.26,129.78 82.26,82.26 0 0 0 201,160.26"
     class="cls-4" />
  <path
     style="fill:none;stroke:#231815;stroke-miterlimit:10"
     inkscape:connector-curvature="0"
     id="path64"
     d="m 318.25,290.25 c 0,3.79 2.37,7.57 7.24,7.5 a 59.9,59.9 0 0 0 58.8,-52.34 c 3.54,-28.75 -15.31,-56 -42.73,-63.9"
     class="cls-4" />
  <path
     style="fill:none;stroke:#231815;stroke-miterlimit:10"
     inkscape:connector-curvature="0"
     id="path66"
     d="M 341.56,181.51 A 83.68,83.68 0 0 0 306.45,139.56"
     class="cls-4" />
  <path
     style="fill:none;stroke:#231815;stroke-miterlimit:10"
     inkscape:connector-curvature="0"
     id="path68"
     d="m 341.56,181.51 c 0.53,1.42 1,2.84 1.51,4.29 l -5.24,-5.24 c 1.26,0.27 2.5,0.6 3.73,0.95 z"
     class="cls-4" />
  <path
     style="fill:none;stroke:#231815;stroke-miterlimit:10"
     inkscape:connector-curvature="0"
     id="path70"
     d="m 206,161.58 c -1.65,-0.51 -3.31,-0.94 -5,-1.32 q -1.82,2.31 -3.49,4.77 z"
     class="cls-4" />
  <path
     style="fill:none;stroke:#231815;stroke-miterlimit:10"
     inkscape:connector-curvature="0"
     id="path72"
     d="m 306.62,144 c 0,-1.5 -0.08,-3 -0.17,-4.46 a 77.74,77.74 0 0 0 -15.83,-7.19 q 0.64,4.08 0.89,8.28"
     class="cls-4" />
  <path
     style="fill:none;stroke:#231815;stroke-miterlimit:10"
     inkscape:connector-curvature="0"
     id="path74"
     d="m 292.48,141 c 3.1,-5.83 13.75,-4.84 14.14,3"
     class="cls-4" />
  <path
     style="fill:none;stroke:#231815;stroke-miterlimit:10"
     inkscape:connector-curvature="0"
     id="path76"
     d="m 139.16,185.78 a 78.8,78.8 0 0 1 -3.61,-7 67.83,67.83 0 0 0 -10.22,12.89 c 0.54,1 1.08,1.91 1.65,2.85 0.92,1.51 1.88,3 2.86,4.41"
     class="cls-4" />
  <path
     style="fill:none;stroke:#231815;stroke-miterlimit:10"
     inkscape:connector-curvature="0"
     id="path78"
     d="m 306.62,144 c 0,0.17 0,0.34 0,0.52 v 0.07"
     class="cls-4" />
  <path
     style="fill:none;stroke:#231815;stroke-miterlimit:10"
     inkscape:connector-curvature="0"
     id="path80"
     d="m 306.62,145 c 0,-0.14 0,-0.28 0,-0.42"
     class="cls-4" />
  <path
     style="fill:none;stroke:#231815;stroke-miterlimit:10"
     inkscape:connector-curvature="0"
     id="path82"
     d="m 306.62,145 v 0.08"
     class="cls-4" />
  <path
     style="fill:none;stroke:#231815;stroke-miterlimit:10"
     inkscape:connector-curvature="0"
     id="path84"
     d="m 306.52,148.42 c 0.05,-1.1 0.09,-2.2 0.1,-3.31"
     class="cls-4" />
  <path
     style="fill:none;stroke:#231815;stroke-miterlimit:10"
     inkscape:connector-curvature="0"
     id="path86"
     d="m 305.7,157.2 a 66.75,66.75 0 0 1 22.9,32.58 7.52,7.52 0 0 0 5.24,5.24 c 22.53,4.89 38.5,25.75 35.61,49 -2.74,22.1 -22,38.41 -44,38.7 -4.78,0.07 -7.19,3.79 -7.24,7.5 h 7.24 A 51.75,51.75 0 0 0 335.8,187.76 74,74 0 0 0 306.48,148.39"
     class="cls-4" />
  <path
     style="fill:none;stroke:#231815;stroke-miterlimit:10"
     inkscape:connector-curvature="0"
     id="path88"
     d="M 291.51,140.65 A 73.75,73.75 0 0 0 208,163.41 q -2.09,2.61 -4,5.4 a 62.53,62.53 0 0 0 -6.88,-1.79 62.19,62.19 0 0 0 -58,18.76"
     class="cls-4" />
  <path
     style="fill:none;stroke:#231815;stroke-miterlimit:10"
     inkscape:connector-curvature="0"
     id="path90"
     d="m 143.45,192.33 a 54.24,54.24 0 0 1 14.15,-11.79 c 13.58,-7.83 29.54,-9.09 44.43,-4.49 3.34,1 6.63,-0.74 8.47,-3.45 14.65,-21.54 41.42,-33.14 67.16,-28.1 a 67,67 0 0 1 13.82,4.31"
     class="cls-4" />
  <path
     style="fill:none;stroke:#231815;stroke-miterlimit:10"
     inkscape:connector-curvature="0"
     id="path92"
     d="m 129.84,198.91 a 62.23,62.23 0 0 0 55,91.34 h 7.24 c 0,-3.72 -2.45,-7.44 -7.24,-7.5 -24.51,-0.27 -46.37,-16.59 -52.84,-40.39 a 54.59,54.59 0 0 1 3,-36.61"
     class="cls-4" />
  <path
     style="fill:none;stroke:#231815;stroke-miterlimit:10"
     inkscape:connector-curvature="0"
     id="path94"
     d="m 305.87,148 a 74.23,74.23 0 0 0 -13.39,-7"
     class="cls-4" />
  <path
     style="fill:none;stroke:#231815;stroke-miterlimit:10"
     inkscape:connector-curvature="0"
     id="path96"
     d="m 294.05,150 c 1,0.47 1.94,1 2.88,1.48"
     class="cls-4" />
  <path
     style="fill:none;stroke:#231815;stroke-miterlimit:10"
     inkscape:connector-curvature="0"
     id="path98"
     d="m 139.16,185.78 a 62.74,62.74 0 0 0 -9.32,13.13 c 1.62,2.37 3.34,4.65 5.14,6.84 a 55.48,55.48 0 0 1 8.47,-13.42 c -1.54,-2.13 -2.98,-4.33 -4.29,-6.55 z"
     class="cls-4" />
  <path
     style="fill:none;stroke:#231815;stroke-miterlimit:10"
     inkscape:connector-curvature="0"
     id="path100"
     d="m 292.48,141 -1,-0.38 c 0.07,1.29 0.11,2.58 0.12,3.89 a 7.49,7.49 0 0 1 0.88,-3.51 z"
     class="cls-4" />
  <path
     style="fill:none;stroke:#231815;stroke-miterlimit:10"
     inkscape:connector-curvature="0"
     id="path102"
     d="m 291.63,144.54 c 0,1.42 -0.07,2.85 -0.15,4.27 0.86,0.37 1.72,0.77 2.57,1.18 a 7,7 0 0 1 -2.42,-5.45 z"
     class="cls-4" />
  <path
     style="fill:none;stroke:#231815;stroke-miterlimit:10"
     inkscape:connector-curvature="0"
     id="path104"
     d="m 296.93,151.47 a 66.41,66.41 0 0 1 8.77,5.73 c 0.4,-2.9 0.68,-5.83 0.82,-8.78 -0.22,-0.14 -0.44,-0.28 -0.65,-0.43 -1.64,3.24 -5.6,4.39 -8.94,3.48 z"
     class="cls-4" />
  <path
     style="fill:none;stroke:#231815;stroke-miterlimit:10"
     inkscape:connector-curvature="0"
     id="path106"
     d="m 293,290.25 c 1.6,-1.6 3.19,-3.21 4.79,-4.82 l 11.93,-12 c 4.57,-4.6 1.22,-12.8 -5.3,-12.8 h -18 l 12.06,-18 c 3.22,-4.82 -1.06,-11.29 -6.48,-11.29 -12.94,0 -25.95,-0.37 -38.9,-0.16 q -3.42,0.06 -6.82,0.16 c -4.63,0.17 -7.06,2.82 -9.08,6.11 -1,1.58 -1.85,3.31 -2.83,5 q -7.45,12.7 -14.89,25.42 l -10.82,18.45 a 7.22,7.22 0 0 0 -1,4 7.58,7.58 0 0 0 7.46,7.3 h 18.6 L 203,359.92 c -3.1,4.78 0.78,10.6 5.58,11.4 a 6.18,6.18 0 0 0 6.86,-2.88 Q 254.19,329.35 293,290.25 Z"
     class="cls-4" />
  <path
     style="fill:none;stroke:#231815;stroke-miterlimit:10"
     inkscape:connector-curvature="0"
     id="path108"
     d="M 271.84,290.25 Q 254.1,308.14 236.36,326 l 15.85,-32.19 a 8.41,8.41 0 0 0 0.86,-3.59 7.3,7.3 0 0 0 -7.33,-7.7 h -17.55 l 21.24,-36.25 h 28.49 l -12.06,18 c -3.23,4.82 1.06,11.29 6.48,11.29 h 14 z"
     class="cls-4" />
</svg>
